<?xml version="1.0" encoding="UTF-8" standalone="no"?>
<!DOCTYPE svg PUBLIC "-//W3C//DTD SVG 1.1//EN"
"http://www.w3.org/Graphics/SVG/1.1/DTD/svg11.dtd">
<svg viewBox="0 0 1286 909" version="1.1" xmlns="http://www.w3.org/2000/svg" xmlns:xlink="http://www.w3.org/1999/xlink">
<defs>
<style type="text/css"><![CDATA[
.g1_1{
fill: #CECECE;
}
.g2_1{
fill: #FFFFFF;
}
.g3_1{
fill: #868686;
}
]]></style>
</defs>
<path d="M123.9,328.4l0,0.1l237.4,0l0,-0.1l-237.4,0Z" class="g1_1" />
<path d="M361.2,328.4l0,21.8l0.1,0l0,-21.8l-0.1,0Z" class="g1_1" />
<path d="M123.9,350l0,0.2l237.4,0l0,-0.2l-237.4,0Z" class="g1_1" />
<path d="M123.9,328.4l0,21.8l0.2,0l0,-21.8l-0.2,0Z" class="g1_1" />
<path d="M178.9,371.8l0,0.2l156,0l0,-0.2l-156,0Z" class="g1_1" />
<path d="M334.8,371.8l0,24.2l0.1,0l0,-24.2l-0.1,0Z" class="g1_1" />
<path d="M178.9,395.8l0,0.2l156,0l0,-0.2l-156,0Z" class="g1_1" />
<path d="M178.9,371.8l0,24.2l0.2,0l0,-24.2l-0.2,0Z" class="g1_1" />
<path d="M187,393.8l0,21.6l97.7,0l0,-21.6l-97.7,0Z" class="g2_1" />
<path d="M187,393.6l0,0.2l97.9,0l0,-0.2l-97.9,0Z" class="g1_1" />
<path d="M284.7,393.6l0,22l0.2,0l0,-22l-0.2,0Z" class="g1_1" />
<path d="M187,415.4l0,0.2l97.9,0l0,-0.2l-97.9,0Z" class="g1_1" />
<path d="M187,393.6l0,22l0.2,0l0,-22l-0.2,0Z" class="g1_1" />
<path d="M183.7,412.1l0,26.3l182.4,0l0,-26.3l-182.4,0Z" class="g2_1" />
<path d="M183.5,412l0,0.1l182.8,0l0,-0.1l-182.8,0Z" class="g1_1" />
<path d="M366.1,412l0,26.5l0.2,0l0,-26.5l-0.2,0Z" class="g1_1" />
<path d="M183.5,438.4l0,0.1l182.8,0l0,-0.1l-182.8,0Z" class="g1_1" />
<path d="M183.5,412l0,26.5l0.2,0l0,-26.5l-0.2,0Z" class="g1_1" />
<path d="M105.6,467l0,0.1l246.9,0l0,-0.1l-246.9,0Z" class="g1_1" />
<path d="M352.4,467l0,23.1l0.1,0l0,-23.1l-0.1,0Z" class="g1_1" />
<path d="M105.6,489.9l0,0.2l246.9,0l0,-0.2l-246.9,0Z" class="g1_1" />
<path d="M105.6,467l0,23.1l0.2,0l0,-23.1l-0.2,0Z" class="g1_1" />
<path d="M689.9,479.6l0,0.2l156.5,0l0,-0.2l-156.5,0Z" class="g1_1" />
<path d="M846.3,479.6l0,31l0.1,0l0,-31l-0.1,0Z" class="g1_1" />
<path d="M689.9,510.4l0,0.2l156.5,0l0,-0.2l-156.5,0Z" class="g1_1" />
<path d="M689.9,479.6l0,31l0.2,0l0,-31l-0.2,0Z" class="g1_1" />
<path d="M169.9,488.8l0,21.6l116.6,0l0,-21.6l-116.6,0Z" class="g2_1" />
<path d="M169.8,488.8l0,0.2l116.9,0l0,-0.2l-116.9,0Z" class="g1_1" />
<path d="M286.5,488.8l0,21.8l0.2,0l0,-21.8l-0.2,0Z" class="g1_1" />
<path d="M169.8,510.4l0,0.2l116.9,0l0,-0.2l-116.9,0Z" class="g1_1" />
<path d="M169.8,488.8l0,21.8l0.1,0l0,-21.8l-0.1,0Z" class="g1_1" />
<path d="M83.8,510.4l0,0.2l113.6,0l0,-0.2l-113.6,0Z" class="g1_1" />
<path d="M197.3,510.4l0,22l0.1,0l0,-22l-0.1,0Z" class="g1_1" />
<path d="M83.8,532.2l0,0.2l113.6,0l0,-0.2l-113.6,0Z" class="g1_1" />
<path d="M83.8,510.4l0,22l0.2,0l0,-22l-0.2,0Z" class="g1_1" />
<path d="M196.2,510.6l0,21.6l117.8,0l0,-21.6l-117.8,0Z" class="g2_1" />
<path d="M196.2,510.4l0,0.2l118,0l0,-0.2l-118,0Z" class="g1_1" />
<path d="M314,510.4l0,22l0.2,0l0,-22l-0.2,0Z" class="g1_1" />
<path d="M196.2,532.2l0,0.2l118,0l0,-0.2l-118,0Z" class="g1_1" />
<path d="M196.2,510.4l0,22l0.1,0l0,-22l-0.1,0Z" class="g1_1" />
<path d="M174.3,558.6l0,0.2l80.9,0l0,-0.2l-80.9,0Z" class="g1_1" />
<path d="M255,558.6l0,24.2l0.2,0l0,-24.2l-0.2,0Z" class="g1_1" />
<path d="M174.3,582.6l0,0.2l80.9,0l0,-0.2l-80.9,0Z" class="g1_1" />
<path d="M174.3,558.6l0,24.2l0.2,0l0,-24.2l-0.2,0Z" class="g1_1" />
<path d="M30.4,266.6l0,3.1l1213.7,0l0,-3.1l-1213.7,0Z" class="g1_1" />
<path d="M1241,266.6l0,412.1l3.1,0l0,-412.1l-3.1,0Z" class="g1_1" />
<path d="M30.4,675.6l0,3.1l1213.7,0l0,-3.1l-1213.7,0Z" class="g1_1" />
<path d="M30.4,266.6l0,412.1l3.1,0l0,-412.1l-3.1,0Z" class="g1_1" />
<path d="M395.6,328.4l0,21.6l247.3,0l0,-21.6l-247.3,0Z" class="g2_1" />
<path d="M395.4,328.4l0,0.1l247.7,0l0,-0.1l-247.7,0Z" class="g1_1" />
<path d="M642.9,328.4l0,21.8l0.2,0l0,-21.8l-0.2,0Z" class="g1_1" />
<path d="M395.4,350l0,0.2l247.7,0l0,-0.2l-247.7,0Z" class="g1_1" />
<path d="M395.4,328.4l0,21.8l0.2,0l0,-21.8l-0.2,0Z" class="g1_1" />
<path d="M443.7,372l0,20.5l155.8,0l0,-20.5l-155.8,0Z" class="g2_1" />
<path d="M443.7,371.8l0,0.2l156,0l0,-0.2l-156,0Z" class="g1_1" />
<path d="M599.5,371.8l0,20.9l0.2,0l0,-20.9l-0.2,0Z" class="g1_1" />
<path d="M443.7,392.5l0,0.2l156,0l0,-0.2l-156,0Z" class="g1_1" />
<path d="M443.7,371.8l0,20.9l0.1,0l0,-20.9l-0.1,0Z" class="g1_1" />
<path d="M456.3,393.8l0,21.6l97.7,0l0,-21.6l-97.7,0Z" class="g2_1" />
<path d="M456.1,393.6l0,0.2l98.1,0l0,-0.2l-98.1,0Z" class="g1_1" />
<path d="M554,393.6l0,22l0.2,0l0,-22l-0.2,0Z" class="g1_1" />
<path d="M456.1,415.4l0,0.2l98.1,0l0,-0.2l-98.1,0Z" class="g1_1" />
<path d="M456.1,393.6l0,22l0.2,0l0,-22l-0.2,0Z" class="g1_1" />
<path d="M447.1,412.1l0,26.3l159.7,0l0,-26.3l-159.7,0Z" class="g2_1" />
<path d="M447,412l0,0.1l160,0l0,-0.1l-160,0Z" class="g1_1" />
<path d="M606.8,412l0,26.5l0.2,0L607,412l-0.2,0Z" class="g1_1" />
<path d="M447,438.4l0,0.1l160,0l0,-0.1l-160,0Z" class="g1_1" />
<path d="M447,412l0,26.5l0.1,0l0,-26.5l-0.1,0Z" class="g1_1" />
<path d="M378.4,467.1l0,22.8l212.3,0l0,-22.8l-212.3,0Z" class="g2_1" />
<path d="M378.2,467l0,0.1l212.7,0l0,-0.1l-212.7,0Z" class="g1_1" />
<path d="M590.7,467l0,23.1l0.2,0l0,-23.1l-0.2,0Z" class="g1_1" />
<path d="M378.2,489.9l0,0.2l212.7,0l0,-0.2l-212.7,0Z" class="g1_1" />
<path d="M378.2,467l0,23.1l0.2,0l0,-23.1l-0.2,0Z" class="g1_1" />
<path d="M429.9,488.8l0,21.6l116.8,0l0,-21.6l-116.8,0Z" class="g2_1" />
<path d="M429.9,488.8l0,0.2l117,0l0,-0.2l-117,0Z" class="g1_1" />
<path d="M546.7,488.8l0,21.8l0.2,0l0,-21.8l-0.2,0Z" class="g1_1" />
<path d="M429.9,510.4l0,0.2l117,0l0,-0.2l-117,0Z" class="g1_1" />
<path d="M429.9,488.8l0,21.8l0.2,0l0,-21.8l-0.2,0Z" class="g1_1" />
<path d="M365.7,515.2l0,21.6l107.7,0l0,-21.6l-107.7,0Z" class="g2_1" />
<path d="M365.7,515l0,0.2l107.8,0l0,-0.2l-107.8,0Z" class="g1_1" />
<path d="M473.4,515l0,22l0.1,0l0,-22l-0.1,0Z" class="g1_1" />
<path d="M365.7,536.8l0,0.2l107.8,0l0,-0.2l-107.8,0Z" class="g1_1" />
<path d="M365.7,515l0,22l0.2,0l0,-22l-0.2,0Z" class="g1_1" />
<path d="M482.7,558.8l0,23.8l109.1,0l0,-23.8l-109.1,0Z" class="g2_1" />
<path d="M482.5,558.6l0,0.2l109.5,0l0,-0.2l-109.5,0Z" class="g1_1" />
<path d="M591.8,558.6l0,24.2l0.2,0l0,-24.2l-0.2,0Z" class="g1_1" />
<path d="M482.5,582.6l0,0.2l109.5,0l0,-0.2l-109.5,0Z" class="g1_1" />
<path d="M482.5,558.6l0,24.2l0.2,0l0,-24.2l-0.2,0Z" class="g1_1" />
<path d="M655.8,363.9l0,21.7l233.5,0l0,-21.7l-233.5,0Z" class="g2_1" />
<path d="M655.6,363.7l0,0.2l233.9,0l0,-0.2l-233.9,0Z" class="g1_1" />
<path d="M889.3,363.7l0,22l0.2,0l0,-22l-0.2,0Z" class="g1_1" />
<path d="M655.6,385.6l0,0.1l233.9,0l0,-0.1l-233.9,0Z" class="g1_1" />
<path d="M655.6,363.7l0,22l0.2,0l0,-22l-0.2,0Z" class="g1_1" />
<path d="M711.9,412.1l0,23.9l155.6,0l0,-23.9l-155.6,0Z" class="g2_1" />
<path d="M711.7,412l0,0.1l156,0l0,-0.1l-156,0Z" class="g1_1" />
<path d="M867.5,412l0,24.2l0.2,0l0,-24.2l-0.2,0Z" class="g1_1" />
<path d="M711.7,436l0,0.2l156,0l0,-0.2l-156,0Z" class="g1_1" />
<path d="M711.7,412l0,24.2l0.2,0l0,-24.2l-0.2,0Z" class="g1_1" />
<path d="M725.6,549.6l0,23.9l98.8,0l0,-23.9l-98.8,0Z" class="g2_1" />
<path d="M725.4,549.5l0,0.1l99.2,0l0,-0.1l-99.2,0Z" class="g1_1" />
<path d="M824.4,549.5l0,24.2l0.2,0l0,-24.2l-0.2,0Z" class="g1_1" />
<path d="M725.4,573.5l0,0.2l99.2,0l0,-0.2l-99.2,0Z" class="g1_1" />
<path d="M725.4,549.5l0,24.2l0.2,0l0,-24.2l-0.2,0Z" class="g1_1" />
<path d="M844.8,323.8l0,21.6l123.6,0l0,-21.6l-123.6,0Z" class="g2_1" />
<path d="M844.6,323.8l0,0.2l123.9,0l0,-0.2l-123.9,0Z" class="g1_1" />
<path d="M968.4,323.8l0,21.8l0.1,0l0,-21.8l-0.1,0Z" class="g1_1" />
<path d="M844.6,345.4l0,0.2l123.9,0l0,-0.2l-123.9,0Z" class="g1_1" />
<path d="M844.6,323.8l0,21.8l0.2,0l0,-21.8l-0.2,0Z" class="g1_1" />
<path d="M979.9,325.1l0,21.6l132.9,0l0,-21.6l-132.9,0Z" class="g2_1" />
<path d="M979.9,324.9l0,0.2l133.1,0l0,-0.2l-133.1,0Z" class="g1_1" />
<path d="M1112.8,324.9l0,22l0.2,0l0,-22l-0.2,0Z" class="g1_1" />
<path d="M979.9,346.7l0,0.2l133.1,0l0,-0.2l-133.1,0Z" class="g1_1" />
<path d="M979.9,324.9l0,22l0.2,0l0,-22l-0.2,0Z" class="g1_1" />
<path d="M989.1,345.6l0,21.6l174.1,0l0,-21.6l-174.1,0Z" class="g2_1" />
<path d="M989.1,345.4l0,0.2l174.3,0l0,-0.2l-174.3,0Z" class="g1_1" />
<path d="M1163.2,345.4l0,22l0.2,0l0,-22l-0.2,0Z" class="g1_1" />
<path d="M989.1,367.2l0,0.2l174.3,0l0,-0.2l-174.3,0Z" class="g1_1" />
<path d="M989.1,345.4l0,22l0.2,0l0,-22l-0.2,0Z" class="g1_1" />
<path d="M898.7,363.9l0,21.7l117.9,0l0,-21.7l-117.9,0Z" class="g2_1" />
<path d="M898.5,363.7l0,0.2l118.3,0l0,-0.2l-118.3,0Z" class="g1_1" />
<path d="M1016.6,363.7l0,22l0.2,0l0,-22l-0.2,0Z" class="g1_1" />
<path d="M898.5,385.6l0,0.1l118.3,0l0,-0.1l-118.3,0Z" class="g1_1" />
<path d="M898.5,363.7l0,22l0.2,0l0,-22l-0.2,0Z" class="g1_1" />
<path d="M1014.4,363.9l0,21.7l132.7,0l0,-21.7l-132.7,0Z" class="g2_1" />
<path d="M1014.2,363.7l0,0.2l133.1,0l0,-0.2l-133.1,0Z" class="g1_1" />
<path d="M1147.1,363.7l0,22l0.2,0l0,-22l-0.2,0Z" class="g1_1" />
<path d="M1014.2,385.6l0,0.1l133.1,0l0,-0.1l-133.1,0Z" class="g1_1" />
<path d="M1014.2,363.7l0,22l0.2,0l0,-22l-0.2,0Z" class="g1_1" />
<path d="M915.7,403l0,21.6l207.8,0l0,-21.6l-207.8,0Z" class="g2_1" />
<path d="M915.7,402.8l0,0.2l207.9,0l0,-0.2l-207.9,0Z" class="g1_1" />
<path d="M1123.5,402.8l0,22l0.1,0l0,-22l-0.1,0Z" class="g1_1" />
<path d="M915.7,424.6l0,0.2l207.9,0l0,-0.2l-207.9,0Z" class="g1_1" />
<path d="M915.7,402.8l0,22l0.2,0l0,-22l-0.2,0Z" class="g1_1" />
<path d="M898.7,467.1l0,18.2l251.2,0l0,-18.2l-251.2,0Z" class="g2_1" />
<path d="M898.5,467l0,0.1l251.5,0l0,-0.1l-251.5,0Z" class="g1_1" />
<path d="M1149.9,467l0,18.5l0.1,0l0,-18.5l-0.1,0Z" class="g1_1" />
<path d="M898.5,485.3l0,0.2l251.5,0l0,-0.2l-251.5,0Z" class="g1_1" />
<path d="M898.5,467l0,18.5l0.2,0l0,-18.5l-0.2,0Z" class="g1_1" />
<path d="M906.6,488.8l0,21.6l186.1,0l0,-21.6l-186.1,0Z" class="g2_1" />
<path d="M906.6,488.8l0,0.2l186.2,0l0,-0.2l-186.2,0Z" class="g1_1" />
<path d="M1092.7,488.8l0,21.8l0.1,0l0,-21.8l-0.1,0Z" class="g1_1" />
<path d="M906.6,510.4l0,0.2l186.2,0l0,-0.2l-186.2,0Z" class="g1_1" />
<path d="M906.6,488.8l0,21.8l0.2,0l0,-21.8l-0.2,0Z" class="g1_1" />
<path d="M950.2,437.3l0,22.7l192.9,0l0,-22.7l-192.9,0Z" class="g2_1" />
<path d="M950,437.1l0,0.2l193.3,0l0,-0.2l-193.3,0Z" class="g1_1" />
<path d="M1143.1,437.1l0,23.1l0.2,0l0,-23.1l-0.2,0Z" class="g1_1" />
<path d="M950,460l0,0.2l193.3,0l0,-0.2L950,460Z" class="g1_1" />
<path d="M950,437.1l0,23.1l0.2,0l0,-23.1l-0.2,0Z" class="g1_1" />
<path d="M426.1,142.5l0,41.2l434.3,0l0,-41.2l-434.3,0Z" class="g3_1" />
<path d="M478.1,515.2l0,21.6l117.9,0l0,-21.6l-117.9,0Z" class="g2_1" />
<path d="M477.9,515l0,0.2l118.3,0l0,-0.2l-118.3,0Z" class="g1_1" />
<path d="M596,515l0,22l0.2,0l0,-22l-0.2,0Z" class="g1_1" />
<path d="M477.9,536.8l0,0.2l118.3,0l0,-0.2l-118.3,0Z" class="g1_1" />
<path d="M477.9,515l0,22l0.2,0l0,-22l-0.2,0Z" class="g1_1" />
<path d="M682,458l0,26.2l186.1,0l0,-26.2L682,458Z" class="g2_1" />
<path d="M682,457.8l0,0.2l186.3,0l0,-0.2l-186.3,0Z" class="g1_1" />
<path d="M868.1,457.8l0,26.6l0.2,0l0,-26.6l-0.2,0Z" class="g1_1" />
<path d="M682,484.2l0,0.2l186.3,0l0,-0.2l-186.3,0Z" class="g1_1" />
<path d="M682,457.8l0,26.6l0.2,0l0,-26.6l-0.2,0Z" class="g1_1" />
<path d="M136.6,350.2l0,20.5l232.4,0l0,-20.5l-232.4,0Z" class="g2_1" />
<path d="M136.6,350l0,0.2l232.6,0l0,-0.2l-232.6,0Z" class="g1_1" />
<path d="M369,350l0,20.9l0.2,0l0,-20.9l-0.2,0Z" class="g1_1" />
<path d="M136.6,370.7l0,0.2l232.6,0l0,-0.2l-232.6,0Z" class="g1_1" />
<path d="M136.6,350l0,20.9l0.2,0l0,-20.9l-0.2,0Z" class="g1_1" />
<path d="M408.3,350.2l0,24l232.4,0l0,-24l-232.4,0Z" class="g2_1" />
<path d="M408.1,350l0,0.2l232.8,0l0,-0.2l-232.8,0Z" class="g1_1" />
<path d="M640.7,350l0,24.4l0.2,0l0,-24.4l-0.2,0Z" class="g1_1" />
<path d="M408.1,374.2l0,0.2l232.8,0l0,-0.2l-232.8,0Z" class="g1_1" />
<path d="M408.1,350l0,24.4l0.2,0l0,-24.4l-0.2,0Z" class="g1_1" />
<path d="M660.4,385.7l0,23.9l232.4,0l0,-23.9l-232.4,0Z" class="g2_1" />
<path d="M660.2,385.6l0,0.1l232.8,0l0,-0.1l-232.8,0Z" class="g1_1" />
<path d="M892.8,385.6l0,24.2l0.2,0l0,-24.2l-0.2,0Z" class="g1_1" />
<path d="M660.2,409.6l0,0.2l232.8,0l0,-0.2l-232.8,0Z" class="g1_1" />
<path d="M660.2,385.6l0,24.2l0.2,0l0,-24.2l-0.2,0Z" class="g1_1" />
</svg>